<?xml version="1.0" encoding="utf-8"?>
<!-- Generator: Adobe Illustrator 24.0.0, SVG Export Plug-In . SVG Version: 6.00 Build 0)  -->
<svg version="1.1" id="Layer_1" xmlns="http://www.w3.org/2000/svg" xmlns:xlink="http://www.w3.org/1999/xlink" x="0px" y="0px"
	 viewBox="0 0 512 512" style="enable-background:new 0 0 512 512;" xml:space="preserve">
<path d="M480,0H32C14.31,0,0,14.31,0,32v448c0,17.69,14.31,32,32,32h448c17.69,0,32-14.31,32-32V32C512,14.31,497.69,0,480,0z
	 M192,256c0,0,5.06-64,64-64c58.94,0,64,64,64,64s1.84,64-64,64C190.16,320,192,256,192,256z M448,448H64V224h64h4.53
	c-2.65,10.28-4.53,20.88-4.53,32c0,70.69,57.31,128,128,128c70.69,0,128-57.31,128-128c0-11.13-1.88-21.72-4.53-32H384h64V448z
	 M448,160h-96V64h96V160z"/>
</svg>
