<svg>

  <symbol id="facebook" version="1.1" xmlns="http://www.w3.org/2000/svg" xmlns:xlink="http://www.w3.org/1999/xlink"  x="0px" y="0px"
     viewBox="0 0 512 512" xml:space="preserve">
     <g fill="#ffffff">
     <path d="M122.29,149.5H408.9v60.66H122.29V149.5z M183.02,100.34c0-32.08,11.69-56.08,35.06-72
       c23.38-15.91,59.37-23.88,107.97-23.88h82.84v67.63h-80.63c-10.69,0-18.78,2.56-24.31,7.67c-5.53,5.13-8.28,11.75-8.28,19.88
       v411.73H183.02V100.34z"/>
     </g>
   </symbol>

  <symbol id="instagram" version="1.1" xmlns="http://www.w3.org/2000/svg" xmlns:xlink="http://www.w3.org/1999/xlink" x="0px" y="0px" viewBox="0 0 512 512" style="enable-background:new 0 0 512 512;" xml:space="preserve" >
    <g fill="#ffffff">
    <path d="M480,0H32C14.31,0,0,14.31,0,32v448c0,17.69,14.31,32,32,32h448c17.69,0,32-14.31,32-32V32C512,14.31,497.69,0,480,0z
    	 M192,256c0,0,5.06-64,64-64c58.94,0,64,64,64,64s1.84,64-64,64C190.16,320,192,256,192,256z M448,448H64V224h64h4.53
    	c-2.65,10.28-4.53,20.88-4.53,32c0,70.69,57.31,128,128,128c70.69,0,128-57.31,128-128c0-11.13-1.88-21.72-4.53-32H384h64V448z
    	 M448,160h-96V64h96V160z"/>
     </g>
   </symbol>

   <symbol id="vkontakte" version="1.1" xmlns="http://www.w3.org/2000/svg" xmlns:xlink="http://www.w3.org/1999/xlink" x="0px" y="0px"
   	 viewBox="0 0 512 512" xml:space="preserve">
     <g fill="#ffffff">
 		<path d="M103.42,27.24h87.75v470.07h-87.75V27.24z M141.85,411.96h148.59c20.06,0,35.6-4.9,46.59-14.71
 			c10.99-9.8,16.49-23.54,16.49-41.22v-0.97c0-11.85-2.46-21.98-7.37-30.39c-4.91-8.41-12.12-14.82-21.62-19.24
 			c-9.5-4.42-20.87-6.63-34.11-6.63H141.85v-85.35h148.59c18.14,0,32.18-4.63,42.11-13.9c9.93-9.26,14.89-22.31,14.89-39.12
 			c0-15.08-4.96-26.83-14.89-35.24s-23.97-12.61-42.11-12.61H141.85V27.24h151.47c30.1,0,55.83,5.01,77.18,15.03
 			c21.35,10.02,37.57,24.57,48.68,43.65c11.1,19.07,16.65,41.98,16.65,68.7c0,18.32-3.58,34.54-10.73,48.66
 			c-7.15,14.12-17.56,25.7-31.22,34.75c-13.67,9.05-30.1,15.19-49.32,18.43c20.5,2.8,38.05,9.11,52.68,18.91
 			c14.62,9.81,25.72,22.58,33.3,38.31c7.58,15.74,11.37,33.95,11.37,54.64v0.97c0,26.94-5.61,50-16.81,69.19
 			c-11.21,19.19-27.54,33.78-49,43.81s-47.24,15.03-77.34,15.03H141.85V411.96z"/>
   	  </g>
    </symbol>

</svg>
