<?xml version="1.0" encoding="utf-8"?>
<!-- Generator: Adobe Illustrator 24.0.0, SVG Export Plug-In . SVG Version: 6.00 Build 0)  -->
<svg version="1.1" id="Layer_2" xmlns="http://www.w3.org/2000/svg" xmlns:xlink="http://www.w3.org/1999/xlink" x="0px" y="0px"
	 viewBox="0 0 144.16 143.37" style="enable-background:new 0 0 144.16 143.37;" xml:space="preserve">
<g>
	<path d="M73.26,23.85V3.38c0-0.55-0.45-1-1-1c-0.55,0-1,0.45-1,1v20.46c0.33-0.01,0.67-0.03,1-0.03
		C72.6,23.82,72.93,23.84,73.26,23.85z"/>
	<path d="M47.2,30.82c0.57-0.35,1.15-0.67,1.73-1l-10.24-17.7c-0.28-0.48-0.89-0.64-1.37-0.36c-0.48,0.28-0.64,0.89-0.36,1.37
		L47.2,30.82z"/>
	<path d="M11.93,37.11c-0.28,0.48-0.12,1.09,0.36,1.37l17.68,10.27c0.32-0.58,0.65-1.16,1-1.73L13.3,36.75
		C12.82,36.47,12.21,36.63,11.93,37.11z"/>
	<path d="M107.84,10.9c-0.48-0.28-1.09-0.12-1.37,0.36l-10.8,18.6c0.58,0.32,1.16,0.65,1.73,1l10.8-18.6
		C108.48,11.79,108.32,11.18,107.84,10.9z"/>
	<path d="M133.21,38.05c0.48-0.28,0.64-0.89,0.36-1.37c-0.28-0.48-0.89-0.64-1.37-0.36l-18.61,10.77c0.35,0.57,0.67,1.15,1,1.73
		L133.21,38.05z"/>
	<path d="M23.93,72.15c0-0.34,0.02-0.67,0.03-1H2.43c-0.55,0-1,0.45-1,1c0,0.55,0.45,1,1,1h21.53
		C23.95,72.82,23.93,72.49,23.93,72.15z"/>
	<path d="M142.09,71.15h-21.53c0.01,0.33,0.03,0.66,0.03,1c0,0.33-0.02,0.67-0.03,1h21.53c0.55,0,1-0.45,1-1
		C143.09,71.6,142.65,71.15,142.09,71.15z"/>
	<path d="M132.23,105.83l-17.68-10.27c-0.32,0.58-0.65,1.16-1,1.73l17.68,10.27c0.16,0.09,0.33,0.14,0.5,0.14
		c0.34,0,0.68-0.18,0.87-0.5C132.87,106.72,132.71,106.11,132.23,105.83z"/>
	<path d="M11.31,106.26c-0.48,0.28-0.64,0.89-0.36,1.37c0.18,0.32,0.52,0.5,0.87,0.5c0.17,0,0.34-0.04,0.5-0.13l18.61-10.77
		c-0.35-0.57-0.67-1.15-1-1.73L11.31,106.26z"/>
	<path d="M97.33,113.49c-0.57,0.35-1.15,0.67-1.73,1l10.24,17.7c0.18,0.32,0.52,0.5,0.87,0.5c0.17,0,0.34-0.04,0.5-0.13
		c0.48-0.28,0.64-0.89,0.36-1.37L97.33,113.49z"/>
	<path d="M36.32,132.04c-0.28,0.48-0.12,1.09,0.36,1.37c0.16,0.09,0.33,0.14,0.5,0.14c0.34,0,0.68-0.18,0.87-0.5l10.8-18.6
		c-0.58-0.32-1.16-0.65-1.73-1L36.32,132.04z"/>
	<path d="M71.26,120.46v20.46c0,0.55,0.45,1,1,1c0.55,0,1-0.45,1-1v-20.46c-0.33,0.01-0.67,0.03-1,0.03
		C71.93,120.49,71.59,120.47,71.26,120.46z"/>
	<path d="M106.17,54.27c0.72-0.41,0.96-1.33,0.55-2.05c-0.42-0.72-1.33-0.96-2.05-0.55L76.24,68.12l0,0
		c-1.02-1.01-2.43-1.63-3.98-1.63c-1.55,0-2.95,0.62-3.97,1.63L47.95,56.3c-0.72-0.42-1.63-0.17-2.05,0.54
		c-0.42,0.72-0.17,1.63,0.54,2.05l20.35,11.82c-0.12,0.46-0.19,0.94-0.19,1.44c0,3.13,2.54,5.67,5.67,5.67
		c3.13,0,5.67-2.54,5.67-5.67c0-0.5-0.07-0.98-0.19-1.43L106.17,54.27z M76.77,68.73c-0.02-0.03-0.04-0.05-0.06-0.08
		C76.73,68.68,76.75,68.71,76.77,68.73z M77.16,69.32c-0.01-0.01-0.01-0.02-0.02-0.04C77.15,69.3,77.16,69.31,77.16,69.32z
		 M67.38,69.28c-0.01,0.01-0.01,0.02-0.02,0.04C67.37,69.3,67.38,69.29,67.38,69.28z M67.81,68.65c-0.02,0.02-0.03,0.04-0.05,0.07
		C67.78,68.7,67.79,68.68,67.81,68.65z M72.26,74.82c-1.47,0-2.67-1.2-2.67-2.67c0-1.47,1.2-2.67,2.67-2.67
		c1.47,0,2.67,1.2,2.67,2.67C74.93,73.63,73.73,74.82,72.26,74.82z"/>
</g>
</svg>
