<?xml version="1.0" encoding="utf-8"?>
<!-- Generator: Adobe Illustrator 24.0.0, SVG Export Plug-In . SVG Version: 6.00 Build 0)  -->
<svg version="1.1" id="Layer_1" xmlns="http://www.w3.org/2000/svg" xmlns:xlink="http://www.w3.org/1999/xlink" x="0px" y="0px"
	 viewBox="0 0 22.07 21.21" style="enable-background:new 0 0 22.07 21.21;" xml:space="preserve">

<path class="st0" d="M21.81,0c-0.03,0-0.07,0-0.1,0c-0.99,3.3-1.25,7.32-4.01,8.85c-0.51-1.44-1.76-2.1-3.19-2.73
	c-0.91-0.4-1.95-1.1-2.83-1.13c-0.21-0.01-0.45-0.01-0.64,0.13c-0.19-0.15-0.43-0.14-0.64-0.13C9.51,5.03,8.47,5.72,7.56,6.12
	C6.13,6.75,4.88,7.41,4.37,8.85C1.61,7.32,1.35,3.3,0.36,0c-0.03,0-0.07,0-0.1,0C0.12,0.29,0.09,0.69,0,1.03
	c0,0.82,0.23,9.2,0.82,12.19c0.53,2.7,2.61,4.64,4.63,5.92c1.41,0.89,3.65,2.07,5.58,2.07c1.93,0,4.17-1.19,5.58-2.07
	c2.03-1.27,4.1-3.22,4.63-5.92c0.59-2.99,0.82-11.37,0.82-12.19C21.98,0.69,21.95,0.29,21.81,0z M15.84,12.03
	c-0.1,0.67-0.71,1.45-1.44,1.49c-1.28,0.07-1.93-1.89-3.37-1.88c-1.44-0.01-2.09,1.95-3.37,1.88c-0.73-0.04-1.34-0.83-1.44-1.49
	c-0.13-0.83,0.26-1.98,0.72-2.42c0.47-0.46,1.21-0.4,2-0.51c0.87-0.13,1.63-0.38,2.08-0.84c0-0.02,0-0.02,0,0
	c0.46,0.46,1.21,0.71,2.08,0.84c0.8,0.12,1.53,0.06,2.01,0.51C15.58,10.05,15.97,11.19,15.84,12.03z"/>
</svg>
