<?xml version="1.0" encoding="utf-8"?>
<!-- Generator: Adobe Illustrator 24.0.0, SVG Export Plug-In . SVG Version: 6.00 Build 0)  -->
<svg version="1.1" id="Layer_1" xmlns="http://www.w3.org/2000/svg" xmlns:xlink="http://www.w3.org/1999/xlink" x="0px" y="0px"
	 viewBox="0 0 62.4 78.49" style="enable-background:new 0 0 62.4 78.49;" xml:space="preserve">
<path d="M62.4,42c0-5.21-2.37-7.78-3.6-9.96c-0.91-1.61-3.98-10.75-4.2-17.64C54.53,9.49,52.91,1.95,51.72,0
	c-0.86,0-1.52,7.78-2.28,11.64c-1.43,7.04-3.77,8.93-4.44,9c-0.76-2.81-4.11-7.36-13.68-7.72c-0.05-0.02-0.08-0.03-0.13-0.04
	c-0.04,0.01-0.08,0.03-0.13,0.04c-9.56,0.36-12.92,4.92-13.67,7.72c-0.67-0.07-3.01-1.96-4.44-9C12.2,7.78,11.54,0,10.68,0
	C9.49,1.95,7.87,9.49,7.8,14.4c-0.23,6.89-3.29,16.03-4.2,17.64C2.37,34.23,0,36.79,0,42c0,3.74,5.2,7.2,5.64,11.4
	c0.13,1.22-0.03,2.35,0.12,3.36c2,17.48,17.87,21.73,25.44,21.73l0,0l0,0c7.57,0,23.44-4.24,25.44-21.73c0.15-1.01,0-2.14,0.12-3.36
	C57.2,49.2,62.4,45.75,62.4,42z M33.24,26.76c-0.69-0.13-3.39-0.13-4.08,0c-1.73,0.34-5.76,0.99-5.76-1.08
	c0-1.07,6.72-2.29,7.8-2.29c1.08,0,7.8,1.23,7.8,2.29C39,27.75,34.97,27.1,33.24,26.76z"/>
</svg>
