<?xml version="1.0" encoding="utf-8"?>
<!-- Generator: Adobe Illustrator 24.0.0, SVG Export Plug-In . SVG Version: 6.00 Build 0)  -->
<svg version="1.1" id="Layer_1" xmlns="http://www.w3.org/2000/svg" xmlns:xlink="http://www.w3.org/1999/xlink" x="0px" y="0px"
	 viewBox="0 0 20 20" style="enable-background:new 0 0 20 20;" xml:space="preserve">
<g>
	<g>
		<path d="M3.22,0h3.75v19.88H3.22V0z M4.86,16.27h6.34c0.86,0,1.52-0.21,1.99-0.62s0.7-1,0.7-1.74v-0.04c0-0.5-0.1-0.93-0.31-1.29
			s-0.52-0.63-0.92-0.81s-0.89-0.28-1.46-0.28H4.86V7.88h6.34c0.77,0,1.37-0.2,1.8-0.59c0.42-0.39,0.64-0.94,0.64-1.65
			C13.64,5,13.43,4.5,13,4.14s-1.02-0.53-1.8-0.53H4.86V0h6.47c1.29,0,2.38,0.21,3.29,0.64s1.6,1.04,2.08,1.85s0.71,1.78,0.71,2.91
			c0,0.77-0.15,1.46-0.46,2.06c-0.31,0.6-0.75,1.09-1.33,1.47s-1.29,0.64-2.11,0.78c0.88,0.12,1.63,0.39,2.25,0.8
			c0.62,0.42,1.1,0.96,1.42,1.62s0.49,1.44,0.49,2.31v0.04c0,1.14-0.24,2.11-0.72,2.93s-1.18,1.43-2.09,1.85s-2.02,0.64-3.3,0.64
			h-6.7V16.27z"/>
	</g>
</g>
</svg>
