<?xml version="1.0" encoding="utf-8"?>
<!-- Generator: Adobe Illustrator 24.0.0, SVG Export Plug-In . SVG Version: 6.00 Build 0)  -->
<svg version="1.1" id="Layer_1" xmlns="http://www.w3.org/2000/svg" xmlns:xlink="http://www.w3.org/1999/xlink" x="0px" y="0px"
	 viewBox="0 0 51.48 49.48" style="enable-background:new 0 0 51.48 49.48;" xml:space="preserve">
<path d="M50.88,0c-0.08,0-0.16,0-0.24,0c-2.31,7.69-2.93,17.07-9.36,20.64c-1.19-3.35-4.11-4.89-7.44-6.36
	c-2.12-0.93-4.55-2.56-6.6-2.64c-0.5-0.02-1.05-0.03-1.5,0.32c-0.45-0.35-1-0.34-1.5-0.32c-2.05,0.08-4.48,1.71-6.6,2.64
	c-3.33,1.47-6.25,3-7.44,6.36C3.76,17.07,3.15,7.69,0.84,0C0.76,0,0.68,0,0.6,0C0.28,0.68,0.2,1.6,0,2.4
	c0,1.92,0.54,21.46,1.92,28.44c1.24,6.29,6.08,10.83,10.8,13.8c3.29,2.07,8.51,4.84,13.02,4.84c4.51,0,9.73-2.77,13.02-4.84
	c4.72-2.97,9.56-7.51,10.8-13.8c1.38-6.98,1.92-26.52,1.92-28.44C51.28,1.6,51.2,0.68,50.88,0z M36.95,28.06
	c-0.25,1.55-1.66,3.39-3.36,3.48c-2.98,0.17-4.51-4.42-7.86-4.38c-3.35-0.04-4.88,4.55-7.86,4.38c-1.7-0.1-3.12-1.93-3.36-3.48
	c-0.31-1.94,0.61-4.61,1.68-5.64c1.1-1.07,2.82-0.93,4.68-1.2c2.04-0.29,3.8-0.88,4.86-1.95c0-0.04,0-0.04,0,0
	c1.06,1.07,2.82,1.65,4.86,1.95c1.86,0.27,3.58,0.13,4.68,1.2C36.34,23.45,37.26,26.11,36.95,28.06z"/>
</svg>
