<?xml version="1.0" encoding="utf-8"?>
<!-- Generator: Adobe Illustrator 24.0.0, SVG Export Plug-In . SVG Version: 6.00 Build 0)  -->
<svg version="1.1" id="Layer_1" xmlns="http://www.w3.org/2000/svg" xmlns:xlink="http://www.w3.org/1999/xlink" x="0px" y="0px"
	 viewBox="0 0 57.68 68.64" style="enable-background:new 0 0 57.68 68.64;" xml:space="preserve">
<path d="M51.6,22.2c0.12-1.7,0.47-3.51,0.72-5.4c0.7-5.43,1.6-11.67-0.12-16.8c-0.08,0-0.16,0-0.24,0
	c-1.32,3.74-1.26,8.35-2.16,12.36c-0.66,2.96-1.77,5.65-3.24,7.56c-0.53,0.69-1.06,1.54-1.92,1.8c-0.66-3.92-4.28-4.94-7.68-6.36
	c-2.13-0.89-3.97-2.02-6.12-2.16c-0.79-0.05-1.47,0.19-2,0.23c-0.53-0.04-1.21-0.28-2-0.23c-2.15,0.14-3.99,1.27-6.12,2.16
	c-3.4,1.42-7.02,2.44-7.68,6.36c-0.86-0.25-1.39-1.11-1.92-1.8c-1.47-1.91-2.57-4.6-3.24-7.56C6.98,8.35,7.05,3.74,5.72,0
	C5.64,0,5.56,0,5.48,0C3.76,5.13,4.66,11.37,5.36,16.8c0.25,1.89,0.6,3.7,0.72,5.4c0.79,11.05-6.95,23.12-6,28.92
	c0.93,7.53,8.4,9.4,14.16,12.36c4.35,2.24,8.31,4.95,13.32,5.16c0.43,0,0.85,0,1.28,0c0,0,0,0,0,0c0.43,0,0.85,0,1.28,0
	c5.01-0.21,8.98-2.92,13.32-5.16c5.76-2.96,13.23-4.83,14.16-12.36C58.55,45.32,50.81,33.25,51.6,22.2z M28.84,25.95L28.84,25.95
	L28.84,25.95L28.84,25.95L28.84,25.95c-2.54,0.04-5.07-0.09-7.16-0.5c0.66-2.05,4.03-1.56,7.08-1.56c0.03,0,0.05,0,0.08,0
	c0.03,0,0.05,0,0.08,0c3.05,0,6.42-0.49,7.08,1.56C33.91,25.85,31.38,25.98,28.84,25.95z"/>
</svg>
