<?xml version="1.0" encoding="utf-8"?>
<!-- Generator: Adobe Illustrator 24.0.0, SVG Export Plug-In . SVG Version: 6.00 Build 0)  -->
<svg version="1.1" id="Layer_1" xmlns="http://www.w3.org/2000/svg" xmlns:xlink="http://www.w3.org/1999/xlink" x="0px" y="0px"
	 viewBox="0 0 57 97.68" style="enable-background:new 0 0 57 97.68;" xml:space="preserve">
<path d="M51.12,15.24C50.73,9.79,50.51,4.39,48.6,0c-0.76,0-1.53,7.31-2.28,10.92c-1.48,7.14-3.71,8.28-4.44,8.28
	c-0.86-3.86-4.38-4.24-7.8-5.88c-1.21-0.58-2.31-1.05-3.6-1.2c-0.67-0.08-1.29,0.1-1.98,0.12c-0.69-0.02-1.31-0.19-1.98-0.12
	c-1.29,0.15-2.39,0.62-3.6,1.2c-3.42,1.64-6.94,2.02-7.8,5.88c-0.72,0-2.96-1.14-4.44-8.28C9.93,7.31,9.16,0,8.4,0
	C6.49,4.39,6.27,9.79,5.88,15.24C5,38.78,0,51.53,0,62.4c0,26.07,11.71,35.28,28.5,35.28c16.79,0,28.5-9.21,28.5-35.28
	C57,51.53,52,38.78,51.12,15.24z M34.44,24.96c-2.79,1.17-5.35-0.71-5.88-0.72c-0.02,0-0.04,0.01-0.06,0.01
	c-0.02,0-0.04-0.01-0.06-0.01c-0.53,0.01-3.09,1.89-5.88,0.72c-0.79-3.58,2.4-4.04,5.94-3.9C32.05,20.92,35.23,21.38,34.44,24.96z"
	/>
</svg>
