<?xml version="1.0" encoding="utf-8"?>
<!-- Generator: Adobe Illustrator 24.0.0, SVG Export Plug-In . SVG Version: 6.00 Build 0)  -->
<svg version="1.1" id="Layer_1" xmlns="http://www.w3.org/2000/svg" xmlns:xlink="http://www.w3.org/1999/xlink" x="0px" y="0px"
	 viewBox="0 0 44.98 12.9" style="enable-background:new 0 0 44.98 12.9;" xml:space="preserve">
<style type="text/css">
	.st0{fill:#010101;}
</style>
<path class="st0" d="M22.49,8.24c1.15,1.71,3.64,4.45,8.78,4.65c7.16,0.28,13.71-5.22,13.71-7.28c-2.76,2.49-7.37,2.72-9.93,1.7
	c-3.78-1.51-3.12-4.49-5.87-6.45c-1.56-1.11-3.78-1.18-5.69,0c-0.34,0.21-0.69,0.48-1,0.81c-0.31-0.33-0.66-0.6-1-0.81
	c-1.9-1.18-4.13-1.11-5.69,0c-2.75,1.95-2.09,4.94-5.87,6.45C7.37,8.33,2.76,8.1,0,5.61c0,2.06,6.55,7.56,13.71,7.28
	C18.85,12.69,21.34,9.95,22.49,8.24L22.49,8.24z"/>
</svg>
